<svg xmlns="http://www.w3.org/2000/svg" height="512pt" version="1.1" viewBox="0 0 512 512" width="512pt">
    <path d="M 0.00 0.00 L 512.00 0.00 L 512.00 512.00 L 0.00 512.00 L 0.00 0.00 Z" fill="transparent" opacity="1.00" stroke="transparent" stroke-width="0.25"/>
    <path d="M 208.55 157.01 C 241.36 154.28 274.61 156.99 306.49 165.26 C 334.32 172.06 360.68 184.10 385.23 198.72 C 392.79 203.21 399.69 208.70 407.09 213.44 C 409.18 213.79 411.20 212.80 413.25 212.53 C 439.52 207.92 467.32 219.51 483.65 240.36 C 490.70 249.18 494.44 260.14 496.98 271.01 C 497.64 276.33 498.80 281.65 498.40 287.04 C 497.28 295.92 495.98 304.98 491.96 313.09 C 485.29 327.71 473.89 340.26 459.54 347.61 C 445.56 355.25 429.11 357.19 413.47 355.08 C 394.56 351.65 377.24 340.36 366.11 324.75 C 365.34 324.28 364.55 324.30 363.76 324.79 C 342.98 335.18 321.00 343.15 298.49 348.88 C 286.29 352.14 273.72 353.84 261.17 354.94 C 249.17 356.18 237.10 356.87 225.02 356.52 C 203.68 355.21 182.26 352.90 161.55 347.29 C 120.52 336.43 80.97 318.14 48.25 290.83 C 36.89 281.92 26.66 271.71 16.41 261.57 C 13.26 259.19 11.90 253.97 15.15 251.11 C 25.05 242.36 33.68 232.18 44.26 224.18 C 90.37 185.58 148.70 162.09 208.55 157.01 Z" fill="#010101" opacity="1.00" stroke="#010101" stroke-width="0.25"/>
    <path d="M 218.45 170.82 C 226.24 170.18 234.12 169.20 241.92 170.28 C 272.67 173.03 300.64 194.29 312.26 222.77 C 316.54 234.32 319.29 246.62 318.64 259.01 C 317.91 275.87 312.61 292.80 302.34 306.33 C 288.49 324.97 267.24 338.49 244.03 341.37 C 237.06 341.81 230.06 341.75 223.09 341.44 C 207.57 339.57 192.51 333.52 180.30 323.70 C 157.77 307.19 144.97 278.73 146.55 250.98 C 147.74 240.19 149.97 229.39 154.54 219.48 C 166.31 194.26 190.91 175.29 218.45 170.82 Z" fill="#ffffff" opacity="1.00" stroke="#ffffff" stroke-width="0.25"/>
    <path d="M 146.60 183.51 C 154.66 181.20 162.66 178.38 171.00 177.21 C 156.21 188.44 144.69 203.93 138.64 221.53 C 132.78 237.71 131.43 255.38 133.97 272.35 C 137.79 292.76 147.72 311.91 162.02 326.94 C 164.67 329.54 168.15 331.42 169.96 334.78 C 144.21 329.10 119.42 319.40 96.30 306.75 C 77.72 295.86 60.03 283.41 43.92 269.09 C 39.70 265.32 35.26 261.72 31.63 257.35 C 30.66 256.45 31.57 255.06 32.33 254.37 C 63.67 221.63 103.70 197.76 146.60 183.51 Z" fill="#ffffff" opacity="1.00" stroke="#ffffff" stroke-width="0.25"/>
    <path d="M 293.98 177.29 C 299.21 177.60 304.20 179.28 309.25 180.53 C 338.84 188.44 366.48 202.47 391.77 219.58 C 379.49 226.88 368.53 237.15 362.30 250.17 C 358.66 256.59 356.35 263.70 354.98 270.94 C 354.27 274.02 354.86 277.26 354.03 280.33 C 352.56 285.49 354.08 290.79 354.61 295.97 C 355.16 301.45 357.64 306.47 358.53 311.87 C 341.26 320.51 323.16 327.54 304.55 332.72 C 300.76 333.89 296.64 333.92 293.06 335.76 C 314.25 319.57 328.30 294.69 332.03 268.35 C 333.80 252.32 332.46 235.68 326.26 220.65 C 321.05 206.81 313.01 193.93 302.06 183.92 C 299.40 181.67 296.51 179.69 293.98 177.29 Z" fill="#ffffff" opacity="1.00" stroke="#ffffff" stroke-width="0.25"/>
    <path d="M 224.43 211.81 C 237.11 209.85 250.81 212.94 260.79 221.20 C 269.28 227.63 274.42 237.55 276.91 247.73 C 279.98 262.65 274.49 278.97 262.94 288.93 C 258.32 293.27 252.80 296.60 246.75 298.49 C 231.41 303.61 213.37 299.56 201.77 288.26 C 188.72 275.91 184.59 255.25 191.63 238.76 C 197.02 225.02 209.85 214.36 224.43 211.81 Z" fill="#010101" opacity="1.00" stroke="#010101" stroke-width="0.25"/>
    <path d="M 226.40 225.72 C 233.17 224.73 240.39 224.88 246.51 228.26 C 256.65 233.03 263.18 243.93 263.67 254.97 C 264.33 264.12 260.05 273.23 253.26 279.26 C 247.78 283.53 241.11 286.72 234.04 286.73 C 222.16 287.57 210.02 280.57 205.08 269.69 C 199.45 257.85 202.17 242.67 211.52 233.50 C 215.63 229.60 220.90 226.98 226.40 225.72 Z" fill="#ffffff" opacity="1.00" stroke="#ffffff" stroke-width="0.25"/>
    <path d="M 416.32 226.25 C 431.81 223.50 448.33 227.80 460.95 237.07 C 476.73 248.24 484.93 268.06 484.31 287.07 C 483.76 293.22 482.07 299.22 480.20 305.09 C 474.45 319.83 462.48 332.17 447.73 338.03 C 435.28 343.21 421.05 343.64 408.16 339.85 C 394.34 334.92 381.67 325.46 374.71 312.34 C 360.28 286.92 368.49 251.08 393.34 235.28 C 400.18 230.56 408.17 227.68 416.32 226.25 Z" fill="#ffffff" opacity="1.00" stroke="#ffffff" stroke-width="0.25"/>
    <path d="M 419.86 252.91 C 423.33 251.07 427.63 250.97 431.02 253.06 C 432.76 254.07 432.66 256.29 432.74 258.03 C 432.73 264.19 432.85 270.36 432.69 276.52 C 439.09 276.70 445.50 276.56 451.90 276.69 C 455.60 276.71 459.30 280.16 458.54 284.02 C 458.82 287.18 456.22 290.54 452.96 290.60 C 446.63 290.84 440.28 290.43 433.95 290.57 C 432.64 291.57 432.96 293.51 432.79 294.96 C 432.54 301.10 433.24 307.32 432.41 313.41 C 429.29 317.61 420.68 317.56 418.81 312.01 C 418.53 304.94 418.61 297.85 418.79 290.77 C 411.76 290.15 404.64 291.15 397.65 290.25 C 391.35 288.20 392.48 277.64 398.93 276.71 C 405.51 276.46 412.11 276.68 418.71 276.62 C 418.83 270.39 418.62 264.16 418.68 257.93 C 418.64 256.17 419.38 254.56 419.86 252.91 Z" fill="#010101" opacity="1.00" stroke="#010101" stroke-width="0.25"/>
</svg>